
            <svg xmlns="http://www.w3.org/2000/svg" xmlns:cc="http://creativecommons.org/ns#" xmlns:rdf="http://www.w3.org/1999/02/22-rdf-syntax-ns#" version="1.1" width="1250.2813720703125" height="445.3749694824219">
              <defs>
                <style type="text/css">svg{background-color:#fff}text,tspan{font:12px Arial}path{fill-opacity:0;stroke-width:2px;stroke:#000}circle{fill:#6b6659;stroke-width:2px;stroke:#000}.anchor text,.any-character text{fill:#fff}.anchor rect,.any-character rect{fill:#6b6659}.escape text,.charset-escape text,.literal text{fill:#000}.escape rect,.charset-escape rect{fill:#bada55}.literal rect{fill:#dae9e5}.charset .charset-box{fill:#cbcbba}.subexp .subexp-label tspan,.charset .charset-label tspan,.match-fragment .repeat-label tspan{font-size:10px}.repeat-label{cursor:help}.subexp .subexp-label tspan,.charset .charset-label tspan{dominant-baseline:text-after-edge}.subexp .subexp-box{stroke:#908c83;stroke-dasharray:6,2;stroke-width:2px;fill-opacity:0}.quote{fill:#908c83}
          </style>
              </defs>
              <metadata>
                <rdf:rdf>
                  <cc:license rdf:about="http://creativecommons.org/licenses/by/3.0/">
                    <cc:permits rdf:resource="http://creativecommons.org/ns#Reproduction"></cc:permits>
                    <cc:permits rdf:resource="http://creativecommons.org/ns#Distribution"></cc:permits>
                    <cc:requires rdf:resource="http://creativecommons.org/ns#Notice"></cc:requires>
                    <cc:requires rdf:resource="http://creativecommons.org/ns#Attribution"></cc:requires>
                    <cc:permits rdf:resource="http://creativecommons.org/ns#DerivativeWorks"></cc:permits>
                  </cc:license>
                </rdf:rdf>
              </metadata>
            <desc>Created with Snap</desc><g transform="matrix(1,0,0,1,15,10)" class="root"><g transform="matrix(1,0,0,1,10,0)" class="regexp match"><path d="M70.875,234.8204125H80.875M126.859375,234.8204125H146.8594M183.437525,234.8204125H208.4375M233.75,234.8204125H278.75M678.578225,234.82041249999997H723.5782M1072.07825,234.82041249999997H1102.0783M1123.406425,234.8204125H1133.4064"></path><g class="match-fragment" transform="matrix(1,0,0,1,0,223.2501)"><g class="label anchor"><rect width="70.875" height="23.140625"></rect><text x="0" y="0" transform="matrix(1,0,0,1,5,16.5703)"><tspan>Start of line</tspan></text></g></g><g class="match-fragment literal" transform="matrix(1,0,0,1,80.875,223.2501)"><g class="label"><rect width="45.984375" height="23.140625" rx="3" ry="3"></rect><text x="0" y="0" transform="matrix(1,0,0,1,5,16.5703)"><tspan class="quote">“</tspan><tspan>검색(</tspan><tspan class="quote">”</tspan></text></g></g><g class="match-fragment" transform="matrix(1,0,0,1,136.8594,223.2501)"><path d="M10,11.5703125q-10,0 -10,10v1.5703125q0,10 10,10h36.578125q10,0 10,-10v-1.5703125q0,-10 -10,-10M56.578125,26.5703125l5,-5m-5,5l-5,-5"></path><g class="escape" transform="matrix(1,0,0,1,10,0)"><g class="label"><rect width="36.578125" height="23.140625" rx="3" ry="3"></rect><text x="0" y="0" transform="matrix(1,0,0,1,5,16.5703)"><tspan>word</tspan></text></g></g></g><g class="match-fragment literal" transform="matrix(1,0,0,1,208.4375,223.2501)"><g class="label"><rect width="25.3125" height="23.140625" rx="3" ry="3"></rect><text x="0" y="0" transform="matrix(1,0,0,1,5,16.5703)"><tspan class="quote">“</tspan><tspan>)[</tspan><tspan class="quote">”</tspan></text></g></g><g class="match-fragment" transform="matrix(1,0,0,1,243.75,0)"><path d="M0,234.82041249999997q10,0 10,-10v-214.82038770446775q0,-10 10,-10h419.8282165527344q10,0 10,10v214.82038770446775q0,10 10,10"></path><g class="subexp" transform="matrix(1,0,0,1,15,10)"><rect rx="3" ry="3" class="subexp-box" transform="matrix(1,0,0,1,0,11.4219)" width="429.8282165527344" height="403.9530944824219"></rect><text x="0" y="0" class="subexp-label" transform="matrix(1,0,0,1,0,11.4219)"><tspan>group #1</tspan></text><g transform="matrix(1,0,0,1,10,21.4219)" class="regexp match"><path d="M358.50005,203.39851249999998H388.5001"></path><g class="match-fragment subexp" transform="matrix(1,0,0,1,0,0)"><rect rx="3" ry="3" class="subexp-box" transform="matrix(1,0,0,1,0,11.4219)" width="378.50006103515625" height="372.5312194824219"></rect><text x="0" y="0" class="subexp-label" transform="matrix(1,0,0,1,0,11.4219)"><tspan>group #2</tspan></text><g transform="matrix(1,0,0,1,10,21.4219)" class="regexp match"><path d="M22.25,181.9766125H42.25M78.828125,181.9766125H103.8281M129.406225,181.9766125H149.4063"></path><g class="match-fragment literal" transform="matrix(1,0,0,1,0,170.4063)"><g class="label"><rect width="22.25" height="23.140625" rx="3" ry="3"></rect><text x="0" y="0" transform="matrix(1,0,0,1,5,16.5703)"><tspan class="quote">“</tspan><tspan>"</tspan><tspan class="quote">”</tspan></text></g></g><g class="match-fragment" transform="matrix(1,0,0,1,32.25,170.4063)"><path d="M10,11.5703125q-10,0 -10,10v1.5703125q0,10 10,10h36.578125q10,0 10,-10v-1.5703125q0,-10 -10,-10M56.578125,26.5703125l5,-5m-5,5l-5,-5"></path><g transform="matrix(1,0,0,1,10,0)" class="escape"><g class="label"><rect width="36.578125" height="23.140625" rx="3" ry="3"></rect><text x="0" y="0" transform="matrix(1,0,0,1,5,16.5703)"><tspan>word</tspan></text></g></g></g><g class="match-fragment literal" transform="matrix(1,0,0,1,103.8281,170.4063)"><g class="label"><rect width="25.578125" height="23.140625" rx="3" ry="3"></rect><text x="0" y="0" transform="matrix(1,0,0,1,5,16.5703)"><tspan class="quote">“</tspan><tspan>":</tspan><tspan class="quote">”</tspan></text></g></g><g class="match-fragment subexp" transform="matrix(1,0,0,1,139.4063,0)"><rect rx="3" ry="3" class="subexp-box" transform="matrix(1,0,0,1,0,11.4219)" width="219.09375" height="341.1093444824219"></rect><text x="0" y="0" class="subexp-label" transform="matrix(1,0,0,1,0,11.4219)"><tspan>group #3</tspan></text><g transform="matrix(1,0,0,1,10,21.4219)" class="regexp"><path d="M10,21.5703125q0,-10 10,-10M189.09375,21.5703125q0,-10 -10,-10M10,151.48435974121094q0,-10 10,-10M189.09375,151.48435974121094q0,-10 -10,-10M10,275.4687135559082q0,10 10,10M189.09375,275.4687135559082q0,10 -10,10M0,160.55467224121094q10,0 10,-10V21.5703125M199.09375,160.55467224121094q-10,0 -10,-10V21.5703125M0,160.55467224121094q10,0 10,10V275.4687135559082M199.09375,160.55467224121094q-10,0 -10,10V275.4687135559082"></path><g transform="matrix(1,0,0,1,20,0)" class="regexp-matches"><path d="M0,11.5703125h16.5078M142.5859,11.5703125H159.09375M0,141.48435974121094h10M144.09375,141.48435974121094H159.09375M0,285.4687135559082h37.875M121.21875,285.4687135559082H159.09375"></path><g class="match" transform="matrix(1,0,0,1,16.5078,0)"><path d="M22.25,11.5703125H42.25M78.828125,11.5703125H103.8281"></path><g class="match-fragment literal" transform="matrix(1,0,0,1,0,0)"><g class="label"><rect width="22.25" height="23.140625" rx="3" ry="3"></rect><text x="0" y="0" transform="matrix(1,0,0,1,5,16.5703)"><tspan class="quote">“</tspan><tspan>"</tspan><tspan class="quote">”</tspan></text></g></g><g class="match-fragment" transform="matrix(1,0,0,1,32.25,0)"><path d="M10,11.5703125q-10,0 -10,10v1.5703125q0,10 10,10h36.578125q10,0 10,-10v-1.5703125q0,-10 -10,-10M56.578125,26.5703125l5,-5m-5,5l-5,-5"></path><g class="escape" transform="matrix(1,0,0,1,10,0)"><g class="label"><rect width="36.578125" height="23.140625" rx="3" ry="3"></rect><text x="0" y="0" transform="matrix(1,0,0,1,5,16.5703)"><tspan>word</tspan></text></g></g></g><g class="match-fragment literal" transform="matrix(1,0,0,1,103.8281,0)"><g class="label"><rect width="22.25" height="23.140625" rx="3" ry="3"></rect><text x="0" y="0" transform="matrix(1,0,0,1,5,16.5703)"><tspan class="quote">“</tspan><tspan>"</tspan><tspan class="quote">”</tspan></text></g></g></g><g transform="matrix(1,0,0,1,0,38.1406)" class="match"><path d="M82,103.34375974121093H112"></path><g class="match-fragment subexp" transform="matrix(1,0,0,1,0,0)"><rect rx="3" ry="3" class="subexp-box" transform="matrix(1,0,0,1,0,11.4219)" width="92" height="183.84371948242188"></rect><text x="0" y="0" class="subexp-label" transform="matrix(1,0,0,1,0,11.4219)"><tspan>group #4</tspan></text><g transform="matrix(1,0,0,1,10,21.4219)" class="regexp"><path d="M10,21.5703125q0,-10 10,-10M62,21.5703125q0,-10 -10,-10M10,49.7109125q0,-10 10,-10M62,49.7109125q0,-10 -10,-10M0,81.92185974121094c10,0 10,-14.070247241210936 20,-14.070247241210936M72,81.92185974121094c-10,0 -10,-14.070247241210936 -20,-14.070247241210936M0,81.92185974121094c10,0 10,14.070352758789056 20,14.070352758789056M72,81.92185974121094c-10,0 -10,14.070352758789056 -20,14.070352758789056M10,114.1328125q0,10 10,10M62,114.1328125q0,10 -10,10M10,142.2734125q0,10 10,10M62,142.2734125q0,10 -10,10M0,81.92185974121094q10,0 10,-10V21.5703125M72,81.92185974121094q-10,0 -10,-10V21.5703125M0,81.92185974121094q10,0 10,10V142.2734125M72,81.92185974121094q-10,0 -10,10V142.2734125"></path><g transform="matrix(1,0,0,1,20,0)" class="regexp-matches"><path d="M0,11.5703125h3.5M28.5,11.5703125H32M0,39.7109125h3.5M28.5,39.7109125H32M0,67.8516125h0M32,67.8516125H32M0,95.9922125h0M32,95.9922125H32M0,124.1328125h1.8359M30.164025,124.1328125H32M0,152.2734125h3.5M28.5,152.2734125H32"></path><g class="match match-fragment literal" transform="matrix(1,0,0,1,3.5,0)"><g class="label"><rect width="25" height="23.140625" rx="3" ry="3"></rect><text x="0" y="0" transform="matrix(1,0,0,1,5,16.5703)"><tspan class="quote">“</tspan><tspan>&gt;</tspan><tspan class="quote">”</tspan></text></g></g><g class="match match-fragment literal" transform="matrix(1,0,0,1,3.5,28.1406)"><g class="label"><rect width="25" height="23.140625" rx="3" ry="3"></rect><text x="0" y="0" transform="matrix(1,0,0,1,5,16.5703)"><tspan class="quote">“</tspan><tspan>&lt;</tspan><tspan class="quote">”</tspan></text></g></g><g class="match match-fragment literal" transform="matrix(1,0,0,1,0,56.2813)"><g class="label"><rect width="32" height="23.140625" rx="3" ry="3"></rect><text x="0" y="0" transform="matrix(1,0,0,1,5,16.5703)"><tspan class="quote">“</tspan><tspan>&gt;=</tspan><tspan class="quote">”</tspan></text></g></g><g class="match match-fragment literal" transform="matrix(1,0,0,1,0,84.4219)"><g class="label"><rect width="32" height="23.140625" rx="3" ry="3"></rect><text x="0" y="0" transform="matrix(1,0,0,1,5,16.5703)"><tspan class="quote">“</tspan><tspan>&lt;=</tspan><tspan class="quote">”</tspan></text></g></g><g class="match match-fragment literal" transform="matrix(1,0,0,1,1.8359,112.5625)"><g class="label"><rect width="28.328125" height="23.140625" rx="3" ry="3"></rect><text x="0" y="0" transform="matrix(1,0,0,1,5,16.5703)"><tspan class="quote">“</tspan><tspan>!=</tspan><tspan class="quote">”</tspan></text></g></g><g class="match match-fragment literal" transform="matrix(1,0,0,1,3.5,140.7031)"><g class="label"><rect width="25" height="23.140625" rx="3" ry="3"></rect><text x="0" y="0" transform="matrix(1,0,0,1,5,16.5703)"><tspan class="quote">“</tspan><tspan>=</tspan><tspan class="quote">”</tspan></text></g></g></g></g></g><g class="match-fragment" transform="matrix(1,0,0,1,102,91.7734)"><path d="M10,11.5703125q-10,0 -10,10v1.5703125q0,10 10,10h32.09375q10,0 10,-10v-1.5703125q0,-10 -10,-10M52.09375,26.5703125l5,-5m-5,5l-5,-5"></path><g class="escape" transform="matrix(1,0,0,1,10,0)"><g class="label"><rect width="32.09375" height="23.140625" rx="3" ry="3"></rect><text x="0" y="0" transform="matrix(1,0,0,1,5,16.5703)"><tspan>digit</tspan></text></g></g></g></g><g class="match match-fragment subexp" transform="matrix(1,0,0,1,27.875,238.4062)"><rect rx="3" ry="3" class="subexp-box" transform="matrix(1,0,0,1,0,11.4219)" width="103.34375" height="71.2812271118164"></rect><text x="0" y="0" class="subexp-label" transform="matrix(1,0,0,1,0,11.4219)"><tspan>group #5</tspan></text><g transform="matrix(1,0,0,1,10,21.4219)" class="regexp"><path d="M0,25.640613555908203c10,0 10,-14.070301055908203 20,-14.070301055908203M83.34375,25.640613555908203c-10,0 -10,-14.070301055908203 -20,-14.070301055908203M0,25.640613555908203c10,0 10,14.070298944091796 20,14.070298944091796M83.34375,25.640613555908203c-10,0 -10,14.070298944091796 -20,14.070298944091796"></path><g transform="matrix(1,0,0,1,20,0)" class="regexp-matches"><path d="M0,11.5703125h2.3359M41.007775,11.5703125H43.34375M0,39.7109125h0M43.34375,39.7109125H43.34375"></path><g class="match match-fragment literal" transform="matrix(1,0,0,1,2.3359,0)"><g class="label"><rect width="38.671875" height="23.140625" rx="3" ry="3"></rect><text x="0" y="0" transform="matrix(1,0,0,1,5,16.5703)"><tspan class="quote">“</tspan><tspan>true</tspan><tspan class="quote">”</tspan></text></g></g><g class="match match-fragment literal" transform="matrix(1,0,0,1,0,28.1406)"><g class="label"><rect width="43.34375" height="23.140625" rx="3" ry="3"></rect><text x="0" y="0" transform="matrix(1,0,0,1,5,16.5703)"><tspan class="quote">“</tspan><tspan>false</tspan><tspan class="quote">”</tspan></text></g></g></g></g></g></g></g></g></g></g><g class="match-fragment literal" transform="matrix(1,0,0,1,388.5001,191.8282)"><g class="label"><rect width="21.328125" height="23.140625" rx="3" ry="3"></rect><text x="0" y="0" transform="matrix(1,0,0,1,5,16.5703)"><tspan class="quote">“</tspan><tspan>,</tspan><tspan class="quote">”</tspan></text></g></g></g></g></g><g class="match-fragment subexp" transform="matrix(1,0,0,1,713.5782,31.4219)"><rect rx="3" ry="3" class="subexp-box" transform="matrix(1,0,0,1,0,11.4219)" width="378.50006103515625" height="372.5312194824219"></rect><text x="0" y="0" class="subexp-label" transform="matrix(1,0,0,1,0,11.4219)"><tspan>group #6</tspan></text><g transform="matrix(1,0,0,1,10,21.4219)" class="regexp match"><path d="M22.25,181.9766125H42.25M78.828125,181.9766125H103.8281M129.406225,181.9766125H149.4063"></path><g class="match-fragment literal" transform="matrix(1,0,0,1,0,170.4063)"><g class="label"><rect width="22.25" height="23.140625" rx="3" ry="3"></rect><text x="0" y="0" transform="matrix(1,0,0,1,5,16.5703)"><tspan class="quote">“</tspan><tspan>"</tspan><tspan class="quote">”</tspan></text></g></g><g class="match-fragment" transform="matrix(1,0,0,1,32.25,170.4063)"><path d="M10,11.5703125q-10,0 -10,10v1.5703125q0,10 10,10h36.578125q10,0 10,-10v-1.5703125q0,-10 -10,-10M56.578125,26.5703125l5,-5m-5,5l-5,-5"></path><g transform="matrix(1,0,0,1,10,0)" class="escape"><g class="label"><rect width="36.578125" height="23.140625" rx="3" ry="3"></rect><text x="0" y="0" transform="matrix(1,0,0,1,5,16.5703)"><tspan>word</tspan></text></g></g></g><g class="match-fragment literal" transform="matrix(1,0,0,1,103.8281,170.4063)"><g class="label"><rect width="25.578125" height="23.140625" rx="3" ry="3"></rect><text x="0" y="0" transform="matrix(1,0,0,1,5,16.5703)"><tspan class="quote">“</tspan><tspan>":</tspan><tspan class="quote">”</tspan></text></g></g><g class="match-fragment subexp" transform="matrix(1,0,0,1,139.4063,0)"><rect rx="3" ry="3" class="subexp-box" transform="matrix(1,0,0,1,0,11.4219)" width="219.09375" height="341.1093444824219"></rect><text x="0" y="0" class="subexp-label" transform="matrix(1,0,0,1,0,11.4219)"><tspan>group #7</tspan></text><g transform="matrix(1,0,0,1,10,21.4219)" class="regexp"><path d="M10,21.5703125q0,-10 10,-10M189.09375,21.5703125q0,-10 -10,-10M10,151.48435974121094q0,-10 10,-10M189.09375,151.48435974121094q0,-10 -10,-10M10,275.4687135559082q0,10 10,10M189.09375,275.4687135559082q0,10 -10,10M0,160.55467224121094q10,0 10,-10V21.5703125M199.09375,160.55467224121094q-10,0 -10,-10V21.5703125M0,160.55467224121094q10,0 10,10V275.4687135559082M199.09375,160.55467224121094q-10,0 -10,10V275.4687135559082"></path><g transform="matrix(1,0,0,1,20,0)" class="regexp-matches"><path d="M0,11.5703125h16.5078M142.5859,11.5703125H159.09375M0,141.48435974121094h10M144.09375,141.48435974121094H159.09375M0,285.4687135559082h37.875M121.21875,285.4687135559082H159.09375"></path><g class="match" transform="matrix(1,0,0,1,16.5078,0)"><path d="M22.25,11.5703125H42.25M78.828125,11.5703125H103.8281"></path><g class="match-fragment literal" transform="matrix(1,0,0,1,0,0)"><g class="label"><rect width="22.25" height="23.140625" rx="3" ry="3"></rect><text x="0" y="0" transform="matrix(1,0,0,1,5,16.5703)"><tspan class="quote">“</tspan><tspan>"</tspan><tspan class="quote">”</tspan></text></g></g><g class="match-fragment" transform="matrix(1,0,0,1,32.25,0)"><path d="M10,11.5703125q-10,0 -10,10v1.5703125q0,10 10,10h36.578125q10,0 10,-10v-1.5703125q0,-10 -10,-10M56.578125,26.5703125l5,-5m-5,5l-5,-5"></path><g class="escape" transform="matrix(1,0,0,1,10,0)"><g class="label"><rect width="36.578125" height="23.140625" rx="3" ry="3"></rect><text x="0" y="0" transform="matrix(1,0,0,1,5,16.5703)"><tspan>word</tspan></text></g></g></g><g class="match-fragment literal" transform="matrix(1,0,0,1,103.8281,0)"><g class="label"><rect width="22.25" height="23.140625" rx="3" ry="3"></rect><text x="0" y="0" transform="matrix(1,0,0,1,5,16.5703)"><tspan class="quote">“</tspan><tspan>"</tspan><tspan class="quote">”</tspan></text></g></g></g><g transform="matrix(1,0,0,1,0,38.1406)" class="match"><path d="M82,103.34375974121093H112"></path><g class="match-fragment subexp" transform="matrix(1,0,0,1,0,0)"><rect rx="3" ry="3" class="subexp-box" transform="matrix(1,0,0,1,0,11.4219)" width="92" height="183.84371948242188"></rect><text x="0" y="0" class="subexp-label" transform="matrix(1,0,0,1,0,11.4219)"><tspan>group #8</tspan></text><g transform="matrix(1,0,0,1,10,21.4219)" class="regexp"><path d="M10,21.5703125q0,-10 10,-10M62,21.5703125q0,-10 -10,-10M10,49.7109125q0,-10 10,-10M62,49.7109125q0,-10 -10,-10M0,81.92185974121094c10,0 10,-14.070247241210936 20,-14.070247241210936M72,81.92185974121094c-10,0 -10,-14.070247241210936 -20,-14.070247241210936M0,81.92185974121094c10,0 10,14.070352758789056 20,14.070352758789056M72,81.92185974121094c-10,0 -10,14.070352758789056 -20,14.070352758789056M10,114.1328125q0,10 10,10M62,114.1328125q0,10 -10,10M10,142.2734125q0,10 10,10M62,142.2734125q0,10 -10,10M0,81.92185974121094q10,0 10,-10V21.5703125M72,81.92185974121094q-10,0 -10,-10V21.5703125M0,81.92185974121094q10,0 10,10V142.2734125M72,81.92185974121094q-10,0 -10,10V142.2734125"></path><g transform="matrix(1,0,0,1,20,0)" class="regexp-matches"><path d="M0,11.5703125h3.5M28.5,11.5703125H32M0,39.7109125h3.5M28.5,39.7109125H32M0,67.8516125h0M32,67.8516125H32M0,95.9922125h0M32,95.9922125H32M0,124.1328125h1.8359M30.164025,124.1328125H32M0,152.2734125h3.5M28.5,152.2734125H32"></path><g class="match match-fragment literal" transform="matrix(1,0,0,1,3.5,0)"><g class="label"><rect width="25" height="23.140625" rx="3" ry="3"></rect><text x="0" y="0" transform="matrix(1,0,0,1,5,16.5703)"><tspan class="quote">“</tspan><tspan>&gt;</tspan><tspan class="quote">”</tspan></text></g></g><g class="match match-fragment literal" transform="matrix(1,0,0,1,3.5,28.1406)"><g class="label"><rect width="25" height="23.140625" rx="3" ry="3"></rect><text x="0" y="0" transform="matrix(1,0,0,1,5,16.5703)"><tspan class="quote">“</tspan><tspan>&lt;</tspan><tspan class="quote">”</tspan></text></g></g><g class="match match-fragment literal" transform="matrix(1,0,0,1,0,56.2813)"><g class="label"><rect width="32" height="23.140625" rx="3" ry="3"></rect><text x="0" y="0" transform="matrix(1,0,0,1,5,16.5703)"><tspan class="quote">“</tspan><tspan>&gt;=</tspan><tspan class="quote">”</tspan></text></g></g><g class="match match-fragment literal" transform="matrix(1,0,0,1,0,84.4219)"><g class="label"><rect width="32" height="23.140625" rx="3" ry="3"></rect><text x="0" y="0" transform="matrix(1,0,0,1,5,16.5703)"><tspan class="quote">“</tspan><tspan>&lt;=</tspan><tspan class="quote">”</tspan></text></g></g><g class="match match-fragment literal" transform="matrix(1,0,0,1,1.8359,112.5625)"><g class="label"><rect width="28.328125" height="23.140625" rx="3" ry="3"></rect><text x="0" y="0" transform="matrix(1,0,0,1,5,16.5703)"><tspan class="quote">“</tspan><tspan>!=</tspan><tspan class="quote">”</tspan></text></g></g><g class="match match-fragment literal" transform="matrix(1,0,0,1,3.5,140.7031)"><g class="label"><rect width="25" height="23.140625" rx="3" ry="3"></rect><text x="0" y="0" transform="matrix(1,0,0,1,5,16.5703)"><tspan class="quote">“</tspan><tspan>=</tspan><tspan class="quote">”</tspan></text></g></g></g></g></g><g class="match-fragment" transform="matrix(1,0,0,1,102,91.7734)"><path d="M10,11.5703125q-10,0 -10,10v1.5703125q0,10 10,10h32.09375q10,0 10,-10v-1.5703125q0,-10 -10,-10M52.09375,26.5703125l5,-5m-5,5l-5,-5"></path><g class="escape" transform="matrix(1,0,0,1,10,0)"><g class="label"><rect width="32.09375" height="23.140625" rx="3" ry="3"></rect><text x="0" y="0" transform="matrix(1,0,0,1,5,16.5703)"><tspan>digit</tspan></text></g></g></g></g><g class="match match-fragment subexp" transform="matrix(1,0,0,1,27.875,238.4062)"><rect rx="3" ry="3" class="subexp-box" transform="matrix(1,0,0,1,0,11.4219)" width="103.34375" height="71.2812271118164"></rect><text x="0" y="0" class="subexp-label" transform="matrix(1,0,0,1,0,11.4219)"><tspan>group #9</tspan></text><g transform="matrix(1,0,0,1,10,21.4219)" class="regexp"><path d="M0,25.640613555908203c10,0 10,-14.070301055908203 20,-14.070301055908203M83.34375,25.640613555908203c-10,0 -10,-14.070301055908203 -20,-14.070301055908203M0,25.640613555908203c10,0 10,14.070298944091796 20,14.070298944091796M83.34375,25.640613555908203c-10,0 -10,14.070298944091796 -20,14.070298944091796"></path><g transform="matrix(1,0,0,1,20,0)" class="regexp-matches"><path d="M0,11.5703125h2.3359M41.007775,11.5703125H43.34375M0,39.7109125h0M43.34375,39.7109125H43.34375"></path><g class="match match-fragment literal" transform="matrix(1,0,0,1,2.3359,0)"><g class="label"><rect width="38.671875" height="23.140625" rx="3" ry="3"></rect><text x="0" y="0" transform="matrix(1,0,0,1,5,16.5703)"><tspan class="quote">“</tspan><tspan>true</tspan><tspan class="quote">”</tspan></text></g></g><g class="match match-fragment literal" transform="matrix(1,0,0,1,0,28.1406)"><g class="label"><rect width="43.34375" height="23.140625" rx="3" ry="3"></rect><text x="0" y="0" transform="matrix(1,0,0,1,5,16.5703)"><tspan class="quote">“</tspan><tspan>false</tspan><tspan class="quote">”</tspan></text></g></g></g></g></g></g></g></g></g></g><g class="match-fragment literal" transform="matrix(1,0,0,1,1102.0783,223.2501)"><g class="label"><rect width="21.328125" height="23.140625" rx="3" ry="3"></rect><text x="0" y="0" transform="matrix(1,0,0,1,5,16.5703)"><tspan class="quote">“</tspan><tspan>]</tspan><tspan class="quote">”</tspan></text></g></g><g class="match-fragment" transform="matrix(1,0,0,1,1133.4064,223.2501)"><g class="label anchor"><rect width="66.875" height="23.140625"></rect><text x="0" y="0" transform="matrix(1,0,0,1,5,16.5703)"><tspan>End of line</tspan></text></g></g></g><path d="M10,234.8204125H0M1210.2814,234.8204125H1220.2813720703125"></path><circle cx="0" cy="234.8204125" r="5"></circle><circle cx="1220.2813720703125" cy="234.8204125" r="5"></circle></g></svg>
          