
            <svg xmlns="http://www.w3.org/2000/svg" xmlns:cc="http://creativecommons.org/ns#" xmlns:rdf="http://www.w3.org/1999/02/22-rdf-syntax-ns#" version="1.1" width="1212.234375" height="314.6718444824219">
              <defs>
                <style type="text/css">svg{background-color:#fff}text,tspan{font:12px Arial}path{fill-opacity:0;stroke-width:2px;stroke:#000}circle{fill:#6b6659;stroke-width:2px;stroke:#000}.anchor text,.any-character text{fill:#fff}.anchor rect,.any-character rect{fill:#6b6659}.escape text,.charset-escape text,.literal text{fill:#000}.escape rect,.charset-escape rect{fill:#bada55}.literal rect{fill:#dae9e5}.charset .charset-box{fill:#cbcbba}.subexp .subexp-label tspan,.charset .charset-label tspan,.match-fragment .repeat-label tspan{font-size:10px}.repeat-label{cursor:help}.subexp .subexp-label tspan,.charset .charset-label tspan{dominant-baseline:text-after-edge}.subexp .subexp-box{stroke:#908c83;stroke-dasharray:6,2;stroke-width:2px;fill-opacity:0}.quote{fill:#908c83}
          </style>
              </defs>
              <metadata>
                <rdf:rdf>
                  <cc:license rdf:about="http://creativecommons.org/licenses/by/3.0/">
                    <cc:permits rdf:resource="http://creativecommons.org/ns#Reproduction"></cc:permits>
                    <cc:permits rdf:resource="http://creativecommons.org/ns#Distribution"></cc:permits>
                    <cc:requires rdf:resource="http://creativecommons.org/ns#Notice"></cc:requires>
                    <cc:requires rdf:resource="http://creativecommons.org/ns#Attribution"></cc:requires>
                    <cc:permits rdf:resource="http://creativecommons.org/ns#DerivativeWorks"></cc:permits>
                  </cc:license>
                </rdf:rdf>
              </metadata>
            <desc>Created with Snap</desc><g transform="matrix(1,0,0,1,15,10)" class="root"><g transform="matrix(1,0,0,1,10,0)" class="regexp match"><path d="M70.875,164.4688125H90.875M132.859375,164.46881249999998H152.8594M174.843775,164.4688125H194.8438M231.421925,164.4688125H256.4219M281.7344,164.4688125H326.7344M693.546925,164.46881249999998H728.5469M750.7969,164.4688125H770.7969M807.375025,164.4688125H832.375M857.953125,164.4688125H877.9532M1044.0312944824218,164.46880974121092H1064.0313M1085.359425,164.4688125H1095.3594"></path><g class="match-fragment" transform="matrix(1,0,0,1,0,152.8985)"><g class="label anchor"><rect width="70.875" height="23.140625"></rect><text x="0" y="0" transform="matrix(1,0,0,1,5,16.5703)"><tspan>Start of line</tspan></text></g></g><g class="match-fragment subexp" transform="matrix(1,0,0,1,80.875,131.4766)"><rect rx="3" ry="3" class="subexp-box" transform="matrix(1,0,0,1,0,11.4219)" width="61.984375" height="43.140625"></rect><text x="0" y="0" class="subexp-label" transform="matrix(1,0,0,1,0,11.4219)"><tspan>group #1</tspan></text><g transform="matrix(1,0,0,1,10,21.4219)" class="regexp match match-fragment literal"><g class="label"><rect width="41.984375" height="23.140625" rx="3" ry="3"></rect><text x="0" y="0" transform="matrix(1,0,0,1,5,16.5703)"><tspan class="quote">“</tspan><tspan>추가</tspan><tspan class="quote">”</tspan></text></g></g></g><g class="match-fragment literal" transform="matrix(1,0,0,1,152.8594,152.8985)"><g class="label"><rect width="21.984375" height="23.140625" rx="3" ry="3"></rect><text x="0" y="0" transform="matrix(1,0,0,1,5,16.5703)"><tspan class="quote">“</tspan><tspan>(</tspan><tspan class="quote">”</tspan></text></g></g><g class="match-fragment" transform="matrix(1,0,0,1,184.8438,152.8985)"><path d="M10,11.5703125q-10,0 -10,10v1.5703125q0,10 10,10h36.578125q10,0 10,-10v-1.5703125q0,-10 -10,-10M56.578125,26.5703125l5,-5m-5,5l-5,-5"></path><g class="escape" transform="matrix(1,0,0,1,10,0)"><g class="label"><rect width="36.578125" height="23.140625" rx="3" ry="3"></rect><text x="0" y="0" transform="matrix(1,0,0,1,5,16.5703)"><tspan>word</tspan></text></g></g></g><g class="match-fragment literal" transform="matrix(1,0,0,1,256.4219,152.8985)"><g class="label"><rect width="25.3125" height="23.140625" rx="3" ry="3"></rect><text x="0" y="0" transform="matrix(1,0,0,1,5,16.5703)"><tspan class="quote">“</tspan><tspan>)[</tspan><tspan class="quote">”</tspan></text></g></g><g class="match-fragment" transform="matrix(1,0,0,1,291.7344,0)"><path d="M0,164.46881249999998q10,0 10,-10v-144.46878770446776q0,-10 10,-10h386.8125305175781q10,0 10,10v144.46878770446776q0,10 10,10M15,164.46881249999998q-10,0 -10,10v110.20305677795412q0,10 10,10h396.8125305175781q10,0 10,-10v-110.20305677795412q0,-10 -10,-10M421.8125305175781,179.46881249999998l5,-5m-5,5l-5,-5"></path><g class="subexp" transform="matrix(1,0,0,1,15,10)"><rect rx="3" ry="3" class="subexp-box" transform="matrix(1,0,0,1,0,11.4219)" width="396.8125305175781" height="263.2499694824219"></rect><text x="0" y="0" class="subexp-label" transform="matrix(1,0,0,1,0,11.4219)"><tspan>group #2</tspan></text><g transform="matrix(1,0,0,1,10,21.4219)" class="regexp match"><path d="M325.48439448242186,133.0469125H355.4844"></path><g class="match-fragment subexp" transform="matrix(1,0,0,1,0,0)"><rect rx="3" ry="3" class="subexp-box" transform="matrix(1,0,0,1,0,11.4219)" width="345.484375" height="231.82809448242188"></rect><text x="0" y="0" class="subexp-label" transform="matrix(1,0,0,1,0,11.4219)"><tspan>group #3</tspan></text><g transform="matrix(1,0,0,1,10,21.4219)" class="regexp match"><path d="M22.25,111.6250125H42.25M78.828125,111.6250125H103.8281M129.406225,111.6250125H149.4063"></path><g class="match-fragment literal" transform="matrix(1,0,0,1,0,100.0547)"><g class="label"><rect width="22.25" height="23.140625" rx="3" ry="3"></rect><text x="0" y="0" transform="matrix(1,0,0,1,5,16.5703)"><tspan class="quote">“</tspan><tspan>"</tspan><tspan class="quote">”</tspan></text></g></g><g class="match-fragment" transform="matrix(1,0,0,1,32.25,100.0547)"><path d="M10,11.5703125q-10,0 -10,10v1.5703125q0,10 10,10h36.578125q10,0 10,-10v-1.5703125q0,-10 -10,-10M56.578125,26.5703125l5,-5m-5,5l-5,-5"></path><g transform="matrix(1,0,0,1,10,0)" class="escape"><g class="label"><rect width="36.578125" height="23.140625" rx="3" ry="3"></rect><text x="0" y="0" transform="matrix(1,0,0,1,5,16.5703)"><tspan>word</tspan></text></g></g></g><g class="match-fragment literal" transform="matrix(1,0,0,1,103.8281,100.0547)"><g class="label"><rect width="25.578125" height="23.140625" rx="3" ry="3"></rect><text x="0" y="0" transform="matrix(1,0,0,1,5,16.5703)"><tspan class="quote">“</tspan><tspan>":</tspan><tspan class="quote">”</tspan></text></g></g><g class="match-fragment subexp" transform="matrix(1,0,0,1,139.4063,0)"><rect rx="3" ry="3" class="subexp-box" transform="matrix(1,0,0,1,0,11.4219)" width="186.07809448242188" height="200.40621948242188"></rect><text x="0" y="0" class="subexp-label" transform="matrix(1,0,0,1,0,11.4219)"><tspan>group #4</tspan></text><g transform="matrix(1,0,0,1,10,21.4219)" class="regexp"><path d="M10,21.5703125q0,-10 10,-10M156.0781021118164,21.5703125q0,-10 -10,-10M10,76.1328125q0,-10 10,-10M156.0781021118164,76.1328125q0,-10 -10,-10M10,134.7656135559082q0,10 10,10M156.0781021118164,134.7656135559082q0,10 -10,10M0,90.20310974121094q10,0 10,-10V21.5703125M166.0781021118164,90.20310974121094q-10,0 -10,-10V21.5703125M0,90.20310974121094q10,0 10,10V134.7656135559082M166.0781021118164,90.20310974121094q-10,0 -10,10V134.7656135559082"></path><g transform="matrix(1,0,0,1,20,0)" class="regexp-matches"><path d="M0,11.5703125h0M126.0781,11.5703125H126.0781021118164M0,66.1328125h23.8828M97.19535340576172,66.1328125H126.0781021118164M0,144.7656135559082h21.3672M104.71095,144.7656135559082H126.0781021118164"></path><g class="match" transform="matrix(1,0,0,1,0,0)"><path d="M22.25,11.5703125H42.25M78.828125,11.5703125H103.8281"></path><g class="match-fragment literal" transform="matrix(1,0,0,1,0,0)"><g class="label"><rect width="22.25" height="23.140625" rx="3" ry="3"></rect><text x="0" y="0" transform="matrix(1,0,0,1,5,16.5703)"><tspan class="quote">“</tspan><tspan>"</tspan><tspan class="quote">”</tspan></text></g></g><g class="match-fragment" transform="matrix(1,0,0,1,32.25,0)"><path d="M10,11.5703125q-10,0 -10,10v1.5703125q0,10 10,10h36.578125q10,0 10,-10v-1.5703125q0,-10 -10,-10M56.578125,26.5703125l5,-5m-5,5l-5,-5"></path><g transform="matrix(1,0,0,1,10,0)" class="escape"><g class="label"><rect width="36.578125" height="23.140625" rx="3" ry="3"></rect><text x="0" y="0" transform="matrix(1,0,0,1,5,16.5703)"><tspan>word</tspan></text></g></g></g><g class="match-fragment literal" transform="matrix(1,0,0,1,103.8281,0)"><g class="label"><rect width="22.25" height="23.140625" rx="3" ry="3"></rect><text x="0" y="0" transform="matrix(1,0,0,1,5,16.5703)"><tspan class="quote">“</tspan><tspan>"</tspan><tspan class="quote">”</tspan></text></g></g></g><g class="match match-fragment" transform="matrix(1,0,0,1,13.8828,38.1406)"><path d="M10,27.9922125q-10,0 -10,10v6.570312295532226q0,10 10,10h73.31255340576172q10,0 10,-10v-6.570312295532226q0,-10 -10,-10M93.31255340576172,42.9922125l5,-5m-5,5l-5,-5"></path><g transform="matrix(1,0,0,1,10,0)" class="charset"><rect rx="3" ry="3" class="charset-box" transform="matrix(1,0,0,1,0,11.4219)" width="73.31254959106445" height="33.140625"></rect><text x="0" y="0" class="charset-label" transform="matrix(1,0,0,1,0,11.4219)"><tspan>One of:</tspan></text><g transform="matrix(1,0,0,1,5,16.4219)"><g transform="matrix(1,0,0,1,0,0)" class="charset-range"><text x="0" y="0" transform="matrix(1,0,0,1,29.6563,15.8438)">-</text><g class="literal" transform="matrix(1,0,0,1,0,0)"><g class="label"><rect width="24.65625" height="23.140625" rx="3" ry="3"></rect><text x="0" y="0" transform="matrix(1,0,0,1,5,16.5703)"><tspan class="quote">“</tspan><tspan>0</tspan><tspan class="quote">”</tspan></text></g></g><g class="literal" transform="matrix(1,0,0,1,38.6563,0)"><g class="label"><rect width="24.65625" height="23.140625" rx="3" ry="3"></rect><text x="0" y="0" transform="matrix(1,0,0,1,5,16.5703)"><tspan class="quote">“</tspan><tspan>9</tspan><tspan class="quote">”</tspan></text></g></g></g></g></g></g><g class="match match-fragment subexp" transform="matrix(1,0,0,1,11.3672,97.7031)"><rect rx="3" ry="3" class="subexp-box" transform="matrix(1,0,0,1,0,11.4219)" width="103.34375" height="71.2812271118164"></rect><text x="0" y="0" class="subexp-label" transform="matrix(1,0,0,1,0,11.4219)"><tspan>group #5</tspan></text><g transform="matrix(1,0,0,1,10,21.4219)" class="regexp"><path d="M0,25.640613555908203c10,0 10,-14.070301055908203 20,-14.070301055908203M83.34375,25.640613555908203c-10,0 -10,-14.070301055908203 -20,-14.070301055908203M0,25.640613555908203c10,0 10,14.070298944091796 20,14.070298944091796M83.34375,25.640613555908203c-10,0 -10,14.070298944091796 -20,14.070298944091796"></path><g transform="matrix(1,0,0,1,20,0)" class="regexp-matches"><path d="M0,11.5703125h2.3359M41.007775,11.5703125H43.34375M0,39.7109125h0M43.34375,39.7109125H43.34375"></path><g class="match match-fragment literal" transform="matrix(1,0,0,1,2.3359,0)"><g class="label"><rect width="38.671875" height="23.140625" rx="3" ry="3"></rect><text x="0" y="0" transform="matrix(1,0,0,1,5,16.5703)"><tspan class="quote">“</tspan><tspan>true</tspan><tspan class="quote">”</tspan></text></g></g><g class="match match-fragment literal" transform="matrix(1,0,0,1,0,28.1406)"><g class="label"><rect width="43.34375" height="23.140625" rx="3" ry="3"></rect><text x="0" y="0" transform="matrix(1,0,0,1,5,16.5703)"><tspan class="quote">“</tspan><tspan>false</tspan><tspan class="quote">”</tspan></text></g></g></g></g></g></g></g></g></g></g><g class="match-fragment literal" transform="matrix(1,0,0,1,355.4844,121.4766)"><g class="label"><rect width="21.328125" height="23.140625" rx="3" ry="3"></rect><text x="0" y="0" transform="matrix(1,0,0,1,5,16.5703)"><tspan class="quote">“</tspan><tspan>,</tspan><tspan class="quote">”</tspan></text></g></g></g></g></g><g class="match-fragment literal" transform="matrix(1,0,0,1,728.5469,152.8985)"><g class="label"><rect width="22.25" height="23.140625" rx="3" ry="3"></rect><text x="0" y="0" transform="matrix(1,0,0,1,5,16.5703)"><tspan class="quote">“</tspan><tspan>"</tspan><tspan class="quote">”</tspan></text></g></g><g class="match-fragment" transform="matrix(1,0,0,1,760.7969,152.8985)"><path d="M10,11.5703125q-10,0 -10,10v1.5703125q0,10 10,10h36.578125q10,0 10,-10v-1.5703125q0,-10 -10,-10M56.578125,26.5703125l5,-5m-5,5l-5,-5"></path><g class="escape" transform="matrix(1,0,0,1,10,0)"><g class="label"><rect width="36.578125" height="23.140625" rx="3" ry="3"></rect><text x="0" y="0" transform="matrix(1,0,0,1,5,16.5703)"><tspan>word</tspan></text></g></g></g><g class="match-fragment literal" transform="matrix(1,0,0,1,832.375,152.8985)"><g class="label"><rect width="25.578125" height="23.140625" rx="3" ry="3"></rect><text x="0" y="0" transform="matrix(1,0,0,1,5,16.5703)"><tspan class="quote">“</tspan><tspan>":</tspan><tspan class="quote">”</tspan></text></g></g><g class="match-fragment subexp" transform="matrix(1,0,0,1,867.9532,52.8438)"><rect rx="3" ry="3" class="subexp-box" transform="matrix(1,0,0,1,0,11.4219)" width="186.07809448242188" height="200.40621948242188"></rect><text x="0" y="0" class="subexp-label" transform="matrix(1,0,0,1,0,11.4219)"><tspan>group #6</tspan></text><g transform="matrix(1,0,0,1,10,21.4219)" class="regexp"><path d="M10,21.5703125q0,-10 10,-10M156.0781021118164,21.5703125q0,-10 -10,-10M10,76.1328125q0,-10 10,-10M156.0781021118164,76.1328125q0,-10 -10,-10M10,134.7656135559082q0,10 10,10M156.0781021118164,134.7656135559082q0,10 -10,10M0,90.20310974121094q10,0 10,-10V21.5703125M166.0781021118164,90.20310974121094q-10,0 -10,-10V21.5703125M0,90.20310974121094q10,0 10,10V134.7656135559082M166.0781021118164,90.20310974121094q-10,0 -10,10V134.7656135559082"></path><g transform="matrix(1,0,0,1,20,0)" class="regexp-matches"><path d="M0,11.5703125h0M126.0781,11.5703125H126.0781021118164M0,66.1328125h23.8828M97.19535340576172,66.1328125H126.0781021118164M0,144.7656135559082h21.3672M104.71095,144.7656135559082H126.0781021118164"></path><g class="match" transform="matrix(1,0,0,1,0,0)"><path d="M22.25,11.5703125H42.25M78.828125,11.5703125H103.8281"></path><g class="match-fragment literal" transform="matrix(1,0,0,1,0,0)"><g class="label"><rect width="22.25" height="23.140625" rx="3" ry="3"></rect><text x="0" y="0" transform="matrix(1,0,0,1,5,16.5703)"><tspan class="quote">“</tspan><tspan>"</tspan><tspan class="quote">”</tspan></text></g></g><g class="match-fragment" transform="matrix(1,0,0,1,32.25,0)"><path d="M10,11.5703125q-10,0 -10,10v1.5703125q0,10 10,10h36.578125q10,0 10,-10v-1.5703125q0,-10 -10,-10M56.578125,26.5703125l5,-5m-5,5l-5,-5"></path><g transform="matrix(1,0,0,1,10,0)" class="escape"><g class="label"><rect width="36.578125" height="23.140625" rx="3" ry="3"></rect><text x="0" y="0" transform="matrix(1,0,0,1,5,16.5703)"><tspan>word</tspan></text></g></g></g><g class="match-fragment literal" transform="matrix(1,0,0,1,103.8281,0)"><g class="label"><rect width="22.25" height="23.140625" rx="3" ry="3"></rect><text x="0" y="0" transform="matrix(1,0,0,1,5,16.5703)"><tspan class="quote">“</tspan><tspan>"</tspan><tspan class="quote">”</tspan></text></g></g></g><g class="match match-fragment" transform="matrix(1,0,0,1,13.8828,38.1406)"><path d="M10,27.9922125q-10,0 -10,10v6.570312295532226q0,10 10,10h73.31255340576172q10,0 10,-10v-6.570312295532226q0,-10 -10,-10M93.31255340576172,42.9922125l5,-5m-5,5l-5,-5"></path><g transform="matrix(1,0,0,1,10,0)" class="charset"><rect rx="3" ry="3" class="charset-box" transform="matrix(1,0,0,1,0,11.4219)" width="73.31254959106445" height="33.140625"></rect><text x="0" y="0" class="charset-label" transform="matrix(1,0,0,1,0,11.4219)"><tspan>One of:</tspan></text><g transform="matrix(1,0,0,1,5,16.4219)"><g transform="matrix(1,0,0,1,0,0)" class="charset-range"><text x="0" y="0" transform="matrix(1,0,0,1,29.6563,15.8438)">-</text><g class="literal" transform="matrix(1,0,0,1,0,0)"><g class="label"><rect width="24.65625" height="23.140625" rx="3" ry="3"></rect><text x="0" y="0" transform="matrix(1,0,0,1,5,16.5703)"><tspan class="quote">“</tspan><tspan>0</tspan><tspan class="quote">”</tspan></text></g></g><g class="literal" transform="matrix(1,0,0,1,38.6563,0)"><g class="label"><rect width="24.65625" height="23.140625" rx="3" ry="3"></rect><text x="0" y="0" transform="matrix(1,0,0,1,5,16.5703)"><tspan class="quote">“</tspan><tspan>9</tspan><tspan class="quote">”</tspan></text></g></g></g></g></g></g><g class="match match-fragment subexp" transform="matrix(1,0,0,1,11.3672,97.7031)"><rect rx="3" ry="3" class="subexp-box" transform="matrix(1,0,0,1,0,11.4219)" width="103.34375" height="71.2812271118164"></rect><text x="0" y="0" class="subexp-label" transform="matrix(1,0,0,1,0,11.4219)"><tspan>group #7</tspan></text><g transform="matrix(1,0,0,1,10,21.4219)" class="regexp"><path d="M0,25.640613555908203c10,0 10,-14.070301055908203 20,-14.070301055908203M83.34375,25.640613555908203c-10,0 -10,-14.070301055908203 -20,-14.070301055908203M0,25.640613555908203c10,0 10,14.070298944091796 20,14.070298944091796M83.34375,25.640613555908203c-10,0 -10,14.070298944091796 -20,14.070298944091796"></path><g transform="matrix(1,0,0,1,20,0)" class="regexp-matches"><path d="M0,11.5703125h2.3359M41.007775,11.5703125H43.34375M0,39.7109125h0M43.34375,39.7109125H43.34375"></path><g class="match match-fragment literal" transform="matrix(1,0,0,1,2.3359,0)"><g class="label"><rect width="38.671875" height="23.140625" rx="3" ry="3"></rect><text x="0" y="0" transform="matrix(1,0,0,1,5,16.5703)"><tspan class="quote">“</tspan><tspan>true</tspan><tspan class="quote">”</tspan></text></g></g><g class="match match-fragment literal" transform="matrix(1,0,0,1,0,28.1406)"><g class="label"><rect width="43.34375" height="23.140625" rx="3" ry="3"></rect><text x="0" y="0" transform="matrix(1,0,0,1,5,16.5703)"><tspan class="quote">“</tspan><tspan>false</tspan><tspan class="quote">”</tspan></text></g></g></g></g></g></g></g></g><g class="match-fragment literal" transform="matrix(1,0,0,1,1064.0313,152.8985)"><g class="label"><rect width="21.328125" height="23.140625" rx="3" ry="3"></rect><text x="0" y="0" transform="matrix(1,0,0,1,5,16.5703)"><tspan class="quote">“</tspan><tspan>]</tspan><tspan class="quote">”</tspan></text></g></g><g class="match-fragment" transform="matrix(1,0,0,1,1095.3594,152.8985)"><g class="label anchor"><rect width="66.875" height="23.140625"></rect><text x="0" y="0" transform="matrix(1,0,0,1,5,16.5703)"><tspan>End of line</tspan></text></g></g></g><path d="M10,164.4688125H0M1172.2344,164.4688125H1182.234375"></path><circle cx="0" cy="164.4688125" r="5"></circle><circle cx="1182.234375" cy="164.4688125" r="5"></circle></g></svg>
          